<svg width="140" height="28" viewBox="0 0 140 28" fill="none" xmlns="http://www.w3.org/2000/svg">
<g clip-path="url(#clip0_41_357)">
<path d="M12.7636 16.4929C15.5022 16.4955 18.1598 15.5639 20.2973 13.852L18.9707 10.508L15.0019 0.538574H10.7123L6.69025 10.643L5.37036 13.9665C7.48533 15.6072 10.0868 16.4962 12.7636 16.4929ZM12.7636 4.41319L15.8989 12.5287C13.8955 13.3029 11.6766 13.3089 9.66907 12.5457L12.7636 4.41319Z" fill="white"/>
<path d="M24.1719 23.5854C23.1015 24.2242 21.9791 24.7715 20.8167 25.2217L21.6898 27.468H25.7163L24.1719 23.5854Z" fill="white"/>
<path d="M21.6228 17.1768C19.548 18.6157 17.1541 19.5279 14.6478 19.8345C12.1416 20.1412 9.59834 19.833 7.23785 18.9366C6.11607 18.5105 5.04787 17.9549 4.05492 17.2811L2.78379 20.4753L0 27.4705H3.98802L6.03589 22.0889C8.78513 23.1363 11.741 23.5271 14.668 23.2302C17.5949 22.9333 20.4121 21.957 22.8951 20.379L21.6228 17.1768Z" fill="white"/>
<path d="M65.2552 18.3002C65.2552 23.87 61.3908 27.9998 55.9344 27.9998C50.4779 27.9998 46.6135 23.87 46.6135 18.3002C46.6135 12.7689 50.4779 8.63916 55.9344 8.63916C61.3908 8.63916 65.2552 12.7678 65.2552 18.3002ZM61.6176 18.3002C61.6176 14.0945 58.9653 11.821 55.9344 11.821C52.9034 11.821 50.2511 14.0888 50.2511 18.3002C50.2511 22.5433 52.9034 24.8169 55.9344 24.8169C58.9653 24.8169 61.6176 22.5433 61.6176 18.3002Z" fill="white"/>
<path d="M118.791 12.4278V9.20744H114.851V3.44824L111.592 4.7069V6.40779C111.592 7.99528 110.758 9.21198 108.788 9.21198H107.802V12.4323H111.288V22.4347C111.288 25.731 113.259 27.6258 116.365 27.6258C117.577 27.6258 118.486 27.399 118.789 27.2856V24.249C118.328 24.3454 117.858 24.3963 117.387 24.4009C115.531 24.4009 114.848 23.5675 114.848 21.9006V12.4278H118.791Z" fill="white"/>
<path d="M32.7466 0V27.4319H29.186V1.35504L32.7466 0Z" fill="white"/>
<path d="M42.0675 0V27.4319H38.5059V1.35504L42.0675 0Z" fill="white"/>
<path d="M135.957 21.1794C135.277 23.2205 133.803 24.8545 130.842 24.8545C127.773 24.8545 125.424 22.5809 125.348 19.3232H139.069C139.121 18.9475 139.146 18.5685 139.145 18.1892C139.145 12.506 136.001 8.6416 130.392 8.6416C125.808 8.6416 121.678 12.5446 121.678 18.2652C121.678 24.4406 125.96 28.0022 130.847 28.0022C135.048 28.0022 137.949 25.5076 138.999 22.3326L135.957 21.1794ZM130.426 11.7837C133.647 11.7837 135.352 13.8248 135.428 16.4441H125.463C125.61 14.0946 127.429 11.7837 130.423 11.7837H130.426Z" fill="white"/>
<path d="M82.6882 21.4922C82.1314 22.9051 80.8036 24.7023 77.7964 24.7023C74.8392 24.7023 72.2311 22.4674 72.2311 18.2991C72.2311 14.0559 74.8834 11.9343 77.7624 11.9343C80.5859 11.9343 81.9387 13.6556 82.5034 15.3066L85.7532 14.0514C84.8755 11.3969 82.3888 8.63916 77.7624 8.63916C72.5713 8.63916 68.5935 12.617 68.5935 18.3002C68.5935 23.8315 72.4965 27.9998 77.801 27.9998C82.3038 27.9998 84.888 25.2262 85.8802 22.7055L84.2303 22.0773L82.6882 21.4922Z" fill="white"/>
<path d="M104.435 24.4381V15.3078C104.435 11.7461 102.313 8.63916 96.8565 8.63916C93.1078 8.63916 90.0813 10.8344 89.469 14.048L92.805 15.318C93.042 13.21 94.4413 11.6701 96.9314 11.6701C99.697 11.6701 100.872 13.1442 100.872 14.929C100.872 15.5731 100.569 16.1412 99.4702 16.2898L94.5411 17.0087C91.3944 17.4622 89.0132 19.2856 89.0132 22.5433C89.0132 25.4224 91.3944 27.9998 95.1137 27.9998C98.3726 27.9998 100.19 26.2569 100.986 24.9688C100.973 25.7939 101.036 26.6184 101.176 27.4317H104.661C104.499 26.4423 104.423 25.4407 104.435 24.4381ZM100.873 19.6258C100.873 23.6036 98.5234 25.0062 95.6058 25.0062C93.7915 25.0062 92.6508 23.7181 92.6508 22.354C92.6508 20.7245 93.7847 19.8593 95.3031 19.6258L100.873 18.7923V19.6258Z" fill="white"/>
</g>
<defs>
<clipPath id="clip0_41_357">
<rect width="139.137" height="28" fill="white"/>
</clipPath>
</defs>
</svg>
