<svg width="80" height="80" viewBox="0 0 80 80" fill="none" xmlns="http://www.w3.org/2000/svg">
<rect width="80" height="80" fill="#80FFDE"/>
<path d="M39.8949 43.4862C41.6007 43.4862 43.2309 43.1666 44.7326 42.5843C46.0189 42.0854 47.2094 41.3945 48.2689 40.5444L46.7912 36.8195L42.3843 25.7143H37.6159L33.1499 36.9698L31.6809 40.672C32.7165 41.4766 33.8743 42.1334 35.119 42.6083C36.6043 43.1755 38.2131 43.4862 39.8949 43.4862ZM39.8949 30.0303L43.3783 39.0704C42.2974 39.4897 41.1233 39.7221 39.8949 39.7221C38.683 39.7221 37.5252 39.4973 36.4569 39.0893L39.8949 30.0303Z" fill="#121212"/>
<path d="M52.5698 51.3892C51.3869 52.0965 50.1409 52.7078 48.842 53.2118L49.8121 55.714H54.2857L52.5698 51.3892Z" fill="#121212"/>
<path d="M49.7379 44.2478C48.6204 45.0271 47.4059 45.6776 46.1171 46.1778C44.1871 46.9256 42.0895 47.3373 39.8961 47.3373C37.733 47.3373 35.6632 46.9369 33.7558 46.2094C32.4997 45.7307 31.3143 45.1092 30.2195 44.364L28.8072 47.9221L25.7144 55.7142H30.1451L32.4204 49.7195C34.7422 50.6062 37.2619 51.0925 39.8936 51.0925C42.5657 51.0925 45.1206 50.5911 47.4702 49.6791C48.764 49.1777 49.9961 48.5512 51.1514 47.8148L49.7379 44.2478Z" fill="#121212"/>
</svg>
