<svg width="458" height="486" viewBox="0 0 458 486" fill="none" xmlns="http://www.w3.org/2000/svg">
<g clip-path="url(#clip0_725_7214)">
<path d="M0.787842 114.322L228.731 0.393555L456.673 114.322L228.731 228.25L0.787842 114.322Z" stroke="#80FFDE" stroke-opacity="0.6"/>
<path opacity="0.95" d="M0.787842 127.86L228.731 13.9316L456.673 127.86L228.731 241.788L0.787842 127.86Z" stroke="#80FFDE" stroke-opacity="0.6"/>
<path opacity="0.9" d="M0.787842 141.398L228.731 27.4697L456.673 141.398L228.731 255.326L0.787842 141.398Z" stroke="#80FFDE" stroke-opacity="0.6"/>
<path opacity="0.85" d="M0.787842 154.936L228.731 41.0078L456.673 154.936L228.731 268.864L0.787842 154.936Z" stroke="#80FFDE" stroke-opacity="0.6"/>
<path opacity="0.8" d="M0.787842 168.474L228.731 54.5464L456.673 168.474L228.731 282.403L0.787842 168.474Z" stroke="#80FFDE" stroke-opacity="0.6"/>
<path opacity="0.75" d="M0.787842 182.013L228.731 68.0845L456.673 182.013L228.731 295.941L0.787842 182.013Z" stroke="#80FFDE" stroke-opacity="0.6"/>
<path opacity="0.7" d="M0.787842 195.551L228.731 81.6226L456.673 195.551L228.731 309.478L0.787842 195.551Z" stroke="#80FFDE" stroke-opacity="0.6"/>
<path opacity="0.65" d="M0.787842 209.088L228.731 95.1602L456.673 209.088L228.731 323.017L0.787842 209.088Z" stroke="#80FFDE" stroke-opacity="0.6"/>
<path opacity="0.6" d="M0.787842 222.627L228.731 108.698L456.673 222.627L228.731 336.555L0.787842 222.627Z" stroke="#80FFDE" stroke-opacity="0.6"/>
<path opacity="0.55" d="M0.787842 236.165L228.731 122.237L456.673 236.165L228.731 350.093L0.787842 236.165Z" stroke="#80FFDE" stroke-opacity="0.6"/>
<path opacity="0.5" d="M0.787842 249.703L228.731 135.775L456.673 249.703L228.731 363.631L0.787842 249.703Z" stroke="#80FFDE" stroke-opacity="0.6"/>
<path opacity="0.45" d="M0.787842 263.242L228.731 149.313L456.673 263.242L228.731 377.169L0.787842 263.242Z" stroke="#80FFDE" stroke-opacity="0.6"/>
<path opacity="0.4" d="M0.787842 276.779L228.731 162.851L456.673 276.779L228.731 390.708L0.787842 276.779Z" stroke="#80FFDE" stroke-opacity="0.6"/>
<path opacity="0.35" d="M0.787842 290.317L228.731 176.389L456.673 290.317L228.731 404.246L0.787842 290.317Z" stroke="#80FFDE" stroke-opacity="0.6"/>
<path opacity="0.3" d="M0.787842 303.856L228.731 189.927L456.673 303.856L228.731 417.783L0.787842 303.856Z" stroke="#80FFDE" stroke-opacity="0.6"/>
<path opacity="0.25" d="M0.787842 317.393L228.731 203.466L456.673 317.393L228.731 431.322L0.787842 317.393Z" stroke="#80FFDE" stroke-opacity="0.6"/>
<path opacity="0.2" d="M0.787842 330.932L228.731 217.004L456.673 330.932L228.731 444.86L0.787842 330.932Z" stroke="#80FFDE" stroke-opacity="0.6"/>
<path opacity="0.15" d="M0.787842 344.47L228.731 230.542L456.673 344.47L228.731 458.398L0.787842 344.47Z" stroke="#80FFDE" stroke-opacity="0.6"/>
<path opacity="0.1" d="M0.787842 358.008L228.731 244.08L456.673 358.008L228.731 471.936L0.787842 358.008Z" stroke="#80FFDE" stroke-opacity="0.6"/>
<path opacity="0.05" d="M0.787842 371.546L228.731 257.618L456.673 371.546L228.731 485.474L0.787842 371.546Z" stroke="#80FFDE" stroke-opacity="0.6"/>
</g>
<defs>
<clipPath id="clip0_725_7214">
<rect width="458" height="486" fill="white"/>
</clipPath>
</defs>
</svg>
