<?xml version="1.0" encoding="UTF-8"?>
<svg id="Layer_1" data-name="Layer 1" xmlns="http://www.w3.org/2000/svg" viewBox="0 0 95.96 87.1">
  <defs>
    <style>
      .cls-1 {
        fill: #739f4d;
      }

      .cls-1, .cls-2, .cls-3, .cls-4 {
        stroke-width: 0px;
      }

      .cls-5 {
        fill: none;
        stroke: #000;
        stroke-linecap: round;
        stroke-linejoin: round;
        stroke-width: 3px;
      }

      .cls-2 {
        fill: #c3bb97;
      }

      .cls-3 {
        fill: #3a3a3a;
      }

      .cls-4 {
        fill: #96c362;
      }
    </style>
  </defs>
  <path class="cls-2" d="M47.96,87.1c-3.1,0-5.8-2.2-6.4-5.2-1.8.7-3.5,1.2-5.2,1.5-1.5.3-3.2.4-4.9.4-6.9,0-13.4-2.1-13.7-2.2-2.8-.9-4.9-3.2-5.4-6.1-.6-2.9.5-5.8,2.7-7.7.1-.1.6-.5,1.3-1-7.9-5.6-13.8-12.8-14.6-13.8-2-2.4-2.3-5.8-.9-8.6,1.4-2.7,4.1-4.4,7.1-4.4h.4c.5,0,3.4.2,7.4.8-3.3-8.5-5-16.2-5.2-17.3-.7-3.3.7-6.5,3.5-8.3,1.3-.9,2.8-1.3,4.4-1.3,1.7,0,3.3.5,4.6,1.5.3.2,5.5,4,11.3,9.8,2.1-10.7,5.7-19.2,6.2-20.4,1.4-2.9,4.2-4.8,7.4-4.8h.2c3.1.1,5.9,2,7.2,4.9.5,1.2,4.1,9.9,6.1,20.4,5.6-5.7,10.6-9.3,11.4-9.9,1.4-1,3-1.5,4.6-1.5s3.1.5,4.4,1.3c2.8,1.8,4.1,5.1,3.5,8.3-.2,1.1-1.9,8.7-5.2,17.3,4-.7,6.9-.8,7.4-.8h.4c4.4,0,8,3.6,8,8,0,1.9-.7,3.7-1.9,5.2-.9,1.1-6.8,8.2-14.5,13.7.7.6,1.2.9,1.3,1.1,2.2,1.9,3.3,4.8,2.7,7.7-.6,2.9-2.6,5.2-5.4,6.1-.7.2-7,2.2-13.7,2.2-1.8,0-3.4-.1-4.9-.4-1.7-.3-3.5-.8-5.2-1.5-.6,2.8-3.3,5-6.4,5Z"/>
  <path class="cls-4" d="M87.96,48s-9.5-2.4-19.4,2.9c-.8.4-2.6.5-1.3-1.7,6.9-11.2,10.2-27.2,10.2-27.2,0,0-12.6,7.7-20.1,19.5-1.4,2.2-2.4,1.1-2.4-2.6,0-14.4-7-30.9-7-30.9,0,0-7,15.8-7,30.9,0,3.6-1.1,5-2.5,2.7-7.4-11.8-20.1-19.8-20.1-19.8,0,0,3.3,16,10.2,27.2,1.4,2.2,2.9,4.2,4.5,6.1-.8-.5-.5-2.9-1.3-3.4-9.8-5.1-23.8-3.7-23.8-3.7,0,0,8.4,10.4,18,15.3,3.4,1.7,7.1,2.9,10.6,3.8-.9,0-2.9-2.1-3.8-1.9-7,1.1-12.5,8.8-12.5,8.8,0,0,8.3,2.7,14.9,1.5,6.8-1.1,12.9-6.7,12.9-6.7v-.1h0v.1s6.2,5.5,12.9,6.7c6.6,1.1,14.9-1.5,14.9-1.5,0,0-3-5.3-9.9-6.4-.9-.2-.2-.4-1.1-.4,3.4-.8,1.9-2,5.2-3.8,9.5-5,17.9-15.4,17.9-15.4Z"/>
  <path class="cls-1" d="M35.06,75.5c6.8-1.1,12.9-6.7,12.9-6.7l-27.8,5.2s8.3,2.6,14.9,1.5Z"/>
  <path class="cls-1" d="M25.96,63.3c9.5,4.9,22,5.5,22,5.5L7.96,48s8.4,10.4,18,15.3Z"/>
  <path class="cls-1" d="M28.66,49.1c7,11.2,19.3,19.7,19.3,19.7L18.46,21.9s3.3,16,10.2,27.2Z"/>
  <path class="cls-1" d="M75.76,74l-27.8-5.2s6.2,5.5,12.9,6.7c6.6,1.1,14.9-1.5,14.9-1.5Z"/>
  <path class="cls-1" d="M87.96,48l-40,20.8c0,.3,12.5-.5,22-5.5,9.6-4.9,18-15.3,18-15.3Z"/>
  <path class="cls-1" d="M77.46,21.9l-29.5,46.9s12.3-8.5,19.3-19.7c6.9-11.2,10.2-27.2,10.2-27.2Z"/>
  <path class="cls-1" d="M47.96,8v60.8s7-15.4,7-29.8-7-31-7-31Z"/>
  <line class="cls-5" x1="47.96" y1="71.7" x2="47.96" y2="80.6"/>
  <path class="cls-3" d="M47.96,8s7,16.5,7,30.9c0,.9,0,1.9-.1,2.8-.1,1.5,1.9,2.2,2.7.9l.1-.1c7.4-11.8,19.9-20.7,19.9-20.7,0,0-3.3,16-10.2,27.2-.3.4-.6.9-.9,1.3-.8,1.2.4,2.6,1.7,2,.3-.1.5-.2.7-.3,9.1-3.6,19.1-4,19.1-4,0,0-8.4,10.4-18,15.3-1.9,1-3.9,1.8-5.9,2.4-1,.3-1,1.7.1,2h0c6.2,1.7,11.6,6.2,11.6,6.2,0,0-5.6,1.8-11.3,1.8-1.2,0-2.4-.1-3.6-.3-6.7-1-12.9-6.6-12.9-6.6v-.1h0v.1s-6.2,5.5-12.9,6.7c-1.2.2-2.4.3-3.6.3-5.7,0-11.3-1.8-11.3-1.8,0,0,3.4-2.7,7.8-4.8,1.1-.5,1.9-.8,3.3-1.1,1.3-.3,1.3-2,.1-2.4-1.9-.6-3.7-1.4-5.5-2.3-9.5-5-17.9-15.4-17.9-15.4,0,0,10.6.5,20,4.5h0c1.2.5,2.3-.9,1.6-1.9-.3-.5-.6-1-1-1.5-6.9-11.2-10.2-27.2-10.2-27.2,0,0,12.5,8.9,19.9,20.7v.1c.8,1.3,2.8.7,2.7-.9-.1-.9-.1-1.9-.1-2.8.1-15.2,7.1-31,7.1-31M87.96,48h0M47.96,5c-1.2,0-2.3.7-2.7,1.8-.3.6-6.6,15.2-7.2,30.2-7.6-10.1-17.4-17.2-17.9-17.5-.5-.4-1.1-.6-1.7-.6s-1.1.2-1.6.5c-1,.7-1.5,1.9-1.3,3.1.1.6,3,14.3,9.1,25.5-8.3-2.6-16-3-16.4-3h-.1c-1.1,0-2.2.6-2.7,1.6-.5,1.1-.4,2.3.3,3.2.4.4,8.9,11,18.9,16.1.5.3,1,.5,1.5.7-4.4,2.1-7.6,4.8-7.8,4.9-.8.7-1.2,1.8-1,2.9s1,1.9,2,2.3c.2.1,6.1,1.9,12.2,1.9,1.5,0,2.8-.1,4.1-.3,5.1-.9,9.9-3.9,12.4-5.8,2.6,1.9,7.3,4.9,12.4,5.8,1.2.2,2.6.3,4.1.3,6.1,0,12-1.9,12.2-1.9,1-.3,1.8-1.2,2-2.3.2-1.1-.2-2.2-1-2.9-.2-.2-3.4-2.8-7.8-4.9.5-.2,1-.5,1.5-.7,9.7-5,18-15,18.8-16.1.5-.5.7-1.2.7-2,0-1.7-1.3-3-3-3h-.2c-.6,0-8.3.4-16.4,3,6-11.2,8.9-24.9,9.1-25.5.3-1.2-.3-2.4-1.3-3.1-.5-.3-1.1-.5-1.6-.5-.6,0-1.2.2-1.7.6-.5.3-10.3,7.4-17.9,17.5-.7-14.2-7-29.3-7.2-30-.5-1.1-1.6-1.8-2.8-1.8h0Z"/>
</svg>